Coordinates
version=1
nRows=12
nColumns=24
inDegrees=yes

Units are S.I. units (second, meters, Newtons, ...)
Angles are in degrees.

endheader
time	pelvis_tilt	pelvis_list	pelvis_rotation	pelvis_tx	pelvis_ty	pelvis_tz	hip_flexion_r	hip_adduction_r	hip_rotation_r	knee_angle_r	ankle_angle_r	subtalar_angle_r	mtp_angle_r	hip_flexion_l	hip_adduction_l	hip_rotation_l	knee_angle_l	ankle_angle_l	subtalar_angle_l	mtp_angle_l	lumbar_extension	lumbar_bending	lumbar_rotation
      1.35400000	      1.37668268	      1.07207250	     -4.75503769	      0.29135523	      1.02382072	      0.25427554	     11.88115683	     -6.39843067	     -7.29771410	    -62.80280955	      4.88493697	     -5.60161797	      6.86362802	      7.77563685	      2.02072427	    -10.38111038	    -10.90725162	      2.55113320	     -8.95585180	     -9.48218700	    -11.19991762	     -2.50884495	      4.72126982
      1.35816667	      1.38526294	      1.01052506	     -4.60832828	      0.29629945	      1.02448431	      0.25368968	     12.45009097	     -6.30109800	     -7.43642823	    -62.58956070	      5.05103518	     -5.71879594	      6.74209315	      7.33175283	      2.03845656	    -10.28443288	    -10.65460735	      2.67053815	     -8.84109744	     -9.50824432	    -11.23505420	     -2.38138163	      4.58282941
      1.36233333	      1.37721519	      0.97628019	     -4.51547193	      0.30116621	      1.02507386	      0.25319810	     13.05724370	     -6.21936001	     -7.50959427	    -62.34069920	      5.14647760	     -5.76964547	      6.72346227	      6.89883420	      2.07846424	    -10.20038027	    -10.38254481	      2.79283495	     -8.75232489	     -9.51030448	    -11.28008322	     -2.29941255	      4.54668276
      1.36650000	      1.38319703	      0.84397048	     -4.27195594	      0.30616120	      1.02575368	      0.25250830	     13.54167960	     -6.05686184	     -7.76716680	    -61.93454276	      5.22535370	     -5.96432556	      6.51229108	      6.47331695	      2.01458906	    -10.05046658	    -10.17719166	      2.99176344	     -8.50413375	     -9.55703970	    -11.31248578	     -2.09342090	      4.13824241
      1.37066667	      1.44127550	      0.74927136	     -4.07557953	      0.31105338	      1.02645289	      0.25187479	     13.98844282	     -5.93508992	     -7.97219377	    -61.50349140	      5.32807352	     -6.09665630	      6.27347469	      5.97327954	      1.99768267	     -9.88443799	     -9.91122666	      3.10810106	     -8.35855652	     -9.61440466	    -11.43351780	     -1.94102464	      3.89126144
      1.37483333	      1.49170229	      0.66654999	     -3.89481688	      0.31597489	      1.02710051	      0.25126514	     14.43311528	     -5.82814036	     -8.17298075	    -61.02086611	      5.40512825	     -6.22996141	      6.05021534	      5.47729354	      1.98767103	     -9.75776333	     -9.64263330	      3.24378914	     -8.20891863	     -9.66998222	    -11.52814758	     -1.79011208	      3.67804129
      1.37900000	      1.46839248	      0.65651562	     -3.79898237	      0.32089757	      1.02754469	      0.25081268	     14.99031220	     -5.77582285	     -8.27454888	    -60.54501260	      5.53093090	     -6.30752060	      6.02754407	      5.04838098	      2.04323979	     -9.70536676	     -9.34573689	      3.35851854	     -8.12158695	     -9.67370808	    -11.52124388	     -1.74223786	      3.64423839
      1.38316667	      1.52996737	      0.49564291	     -3.52338315	      0.32584497	      1.02822665	      0.25007750	     15.33555333	     -5.60294430	     -8.59892267	    -59.88075268	      5.52391560	     -6.54414666	      5.84146649	      4.55832664	      1.94383921	     -9.52083928	     -9.11711913	      3.52257993	     -7.89365938	     -9.71736270	    -11.63618055	     -1.49199769	      3.26184126
      1.38733333	      1.51081572	      0.50135230	     -3.42617291	      0.33074396	      1.02859443	      0.24964989	     15.86149340	     -5.56940399	     -8.70869876	    -59.30862959	      5.65927958	     -6.61812217	      5.81795542	      4.12506878	      2.01160548	     -9.46693866	     -8.81333310	      3.63046412	     -7.80094614	     -9.72120873	    -11.63307479	     -1.46469797	      3.21667923
      1.39150000	      1.73446571	      0.32322324	     -3.06572713	      0.33570752	      1.02950633	      0.24868035	     15.95219153	     -5.43657351	     -9.15668318	    -58.49110439	      5.69668378	     -6.77088267	      5.48972690	      3.44516136	      1.91646511	     -9.17542385	     -8.53511960	      3.74399716	     -7.61422904	     -9.80165257	    -11.95122383	     -1.16383728	      2.66750756
      1.39566667	      1.76644065	      0.22175645	     -2.84349556	      0.34062658	      1.02999918	      0.24804114	     16.31446642	     -5.32064233	     -9.43064403	    -57.70985224	      5.67766683	     -6.96556923	      5.28906710	      2.97539970	      1.87124551	     -9.00590053	     -8.27026227	      3.88578412	     -7.50279018	     -9.84957611	    -12.02094878	     -0.98544333	      2.45139670
      1.39983333	      1.90165007	      0.13952102	     -2.58300767	      0.34554829	      1.03061424	      0.24730283	     16.53218163	     -5.25753479	     -9.76094684	    -56.87699191	      5.77774415	     -7.06434117	      4.97099765	      2.38680236	      1.85539298	     -8.80444845	     -7.97344833	      3.97860015	     -7.37206195	     -9.92628807	    -12.21572907	     -0.82677245	      2.10056137
